<svg xmlns="http://www.w3.org/2000/svg" viewBox="0 0 24 24"><path fill="currentColor" d="M12 2a10 10 0 1 0 0 20 10 10 0 0 0 0-20Zm0 2a8 8 0 0 1 7.75 6.06A2.5 2.5 0 0 0 17 12.5 2.5 2.5 0 0 0 19.94 15 8 8 0 0 1 15 19.75 2.5 2.5 0 0 0 12.5 17 2.5 2.5 0 0 0 10 19.94 8 8 0 0 1 4.25 15 2.5 2.5 0 0 0 7 12.5 2.5 2.5 0 0 0 4.06 10 8 8 0 0 1 9 4.25 2.5 2.5 0 0 0 11.5 7 2.5 2.5 0 0 0 14 4.06 8 8 0 0 1 12 4Zm0 5.25A2.75 2.75 0 1 0 12 14.75 2.75 2.75 0 0 0 12 9.25Zm0 1.75a1 1 0 1 1 0 2 1 1 0 0 1 0-2Z"/></svg>
